<svg aria-hidden="true" xmlns="http://www.w3.org/2000/svg" xmlns:xlink="http://www.w3.org/1999/xlink"><symbol viewBox="0 0 21 20" fill="none" id="like" xmlns="http://www.w3.org/2000/svg">
<path d="M15.3792 0.944214C13.5311 0.944214 11.913 1.8006 10.9043 3.24816C9.8957 1.8006 8.27759 0.944214 6.42946 0.944214C4.95833 0.946001 3.54792 1.57653 2.50767 2.69747C1.46742 3.81841 0.882273 5.33823 0.880615 6.92348C0.880615 13.6743 10.1696 19.1385 10.5651 19.3642C10.6694 19.4246 10.786 19.4563 10.9043 19.4563C11.0227 19.4563 11.1393 19.4246 11.2435 19.3642C11.6391 19.1385 20.9281 13.6743 20.9281 6.92348C20.9264 5.33823 20.3413 3.81841 19.301 2.69747C18.2608 1.57653 16.8504 0.946001 15.3792 0.944214ZM10.9043 17.8019C9.27012 16.7758 2.31258 12.1013 2.31258 6.92348C2.314 5.74739 2.7482 4.6199 3.51995 3.78828C4.29171 2.95666 5.33803 2.48878 6.42946 2.48725C8.17019 2.48725 9.63169 3.48636 10.2421 5.09112C10.296 5.23263 10.3878 5.35366 10.5057 5.43883C10.6236 5.52401 10.7624 5.56949 10.9043 5.56949C11.0463 5.56949 11.1851 5.52401 11.303 5.43883C11.4209 5.35366 11.5127 5.23263 11.5666 5.09112C12.177 3.48347 13.6385 2.48725 15.3792 2.48725C16.4706 2.48878 17.517 2.95666 18.2887 3.78828C19.0605 4.6199 19.4947 5.74739 19.4961 6.92348C19.4961 12.0936 12.5368 16.7748 10.9043 17.8019Z" fill="currentColor"/>
</symbol><symbol viewBox="0 0 26 24" fill="none" id="more" xmlns="http://www.w3.org/2000/svg">
<rect x="0.0664062" y="0.944214" width="20" height="2" rx="1" fill="currentColor"/>
<rect x="0.0664062" y="15.9442" width="20" height="2" rx="1" fill="currentColor"/>
<rect x="17.0664" y="13.9442" width="8" height="2" rx="1" transform="rotate(-90 17.0664 13.9442)" fill="currentColor"/>
<rect x="22.0664" y="10.9442" width="8" height="2" rx="1" transform="rotate(-180 22.0664 10.9442)" fill="currentColor"/>
<rect x="0.0664062" y="8.94421" width="11" height="2" rx="1" fill="currentColor"/>
</symbol><symbol viewBox="0 0 16 21" fill="none" id="next" xmlns="http://www.w3.org/2000/svg">
<path d="M0.650746 0.504853C0.283472 0.786613 0.0771484 1.16871 0.0771484 1.56712C0.0771484 1.96553 0.283472 2.34763 0.650746 2.62939L10.3483 10.0668L0.650746 17.5041C0.29388 17.7875 0.0964146 18.167 0.100878 18.561C0.105342 18.9549 0.311378 19.3318 0.674611 19.6104C1.03784 19.8889 1.52921 20.047 2.04288 20.0504C2.55655 20.0538 3.05142 19.9024 3.42092 19.6287L14.5036 11.129C14.8708 10.8473 15.0771 10.4652 15.0771 10.0668C15.0771 9.66835 14.8708 9.28626 14.5036 9.00449L3.42092 0.504853C3.05353 0.223178 2.55531 0.0649414 2.03583 0.0649414C1.51635 0.0649414 1.01813 0.223178 0.650746 0.504853Z" fill="currentColor"/>
</symbol><symbol viewBox="0 0 15 20" fill="none" id="prew" xmlns="http://www.w3.org/2000/svg">
<path d="M14.4264 19.5457C14.7937 19.2639 15 18.8818 15 18.4834C15 18.085 14.7937 17.7029 14.4264 17.4211L4.72885 9.98378L14.4264 2.5464C14.7833 2.26303 14.9807 1.88349 14.9763 1.48954C14.9718 1.09559 14.7658 0.718744 14.4025 0.440168C14.0393 0.161592 13.5479 0.00357819 13.0343 0.000154495C12.5206 -0.0032692 12.0257 0.148174 11.6562 0.421865L0.573598 8.92151C0.206323 9.20327 0 9.58537 0 9.98378C0 10.3822 0.206323 10.7643 0.573598 11.046L11.6562 19.5457C12.0236 19.8274 12.5218 19.9856 13.0413 19.9856C13.5608 19.9856 14.059 19.8274 14.4264 19.5457Z" fill="currentColor"/>
</symbol><symbol viewBox="0 0 15 17" fill="none" id="star" xmlns="http://www.w3.org/2000/svg">
<path d="M14.0514 7.92334L11.1731 10.697L12.05 14.845C12.0984 15.0702 12.0859 15.3064 12.0142 15.5236C11.9425 15.7409 11.8147 15.9296 11.647 16.0658C11.4793 16.202 11.2792 16.2796 11.072 16.2889C10.8648 16.2982 10.6598 16.2387 10.4829 16.118L7.25271 13.8979L4.0206 16.118C3.8437 16.238 3.63893 16.297 3.4321 16.2873C3.22526 16.2777 3.0256 16.1999 2.85825 16.0638C2.69091 15.9278 2.56336 15.7394 2.49168 15.5225C2.41999 15.3056 2.40737 15.0699 2.4554 14.845L3.33555 10.697L0.457169 7.92334C0.300647 7.77227 0.187448 7.57305 0.131708 7.35057C0.0759686 7.12808 0.0801584 6.89219 0.143755 6.67234C0.207351 6.4525 0.327535 6.25845 0.489297 6.11443C0.651059 5.97041 0.847231 5.8828 1.05331 5.86255L4.82719 5.52253L6.28301 1.58809C6.36181 1.37366 6.49593 1.19025 6.66831 1.06117C6.8407 0.932083 7.04356 0.863159 7.25111 0.863159C7.45866 0.863159 7.66152 0.932083 7.8339 1.06117C8.00628 1.19025 8.1404 1.37366 8.2192 1.58809L9.67438 5.52253L13.4483 5.86255C13.6548 5.88205 13.8515 5.96917 14.0138 6.11299C14.1762 6.25681 14.2969 6.45094 14.3609 6.67105C14.4249 6.89116 14.4293 7.12746 14.3736 7.35035C14.3179 7.57325 14.2045 7.77282 14.0476 7.92406L14.0514 7.92334Z" fill="currentColor"/>
</symbol><symbol viewBox="0 0 39 29" fill="none" id="telegram" xmlns="http://www.w3.org/2000/svg">
<path d="M35.0367 0.795029L2.02915 12.4288C0.70087 12.9705 0.251608 14.0555 1.70811 14.6443C7.12323 16.2172 12.9438 15.5404 17.8536 12.767L30.6502 5.53868C31.7681 4.81264 32.9125 5.00624 31.9277 5.80493L17.113 18.0649C15.3404 19.5319 14.2275 21.6465 14.022 23.9382L14.008 24.0941C13.8663 25.6737 14.5929 27.9822 15.8368 26.9984C18.7038 24.5189 22.8817 24.2829 26.0097 26.4237L29.0339 28.4936C30.9692 29.5407 32.0222 28.865 32.4385 26.9457L37.9037 3.29327C38.4711 0.930802 37.5035 -0.110124 35.0367 0.795029Z" fill="currentColor"/>
</symbol><symbol viewBox="0 0 48 48" fill="none" id="tg" xmlns="http://www.w3.org/2000/svg">
<path d="M24 0.606445C10.752 0.606445 0 11.1116 0 24.0554C0 36.9993 10.752 47.5044 24 47.5044C37.248 47.5044 48 36.9993 48 24.0554C48 11.1116 37.248 0.606445 24 0.606445ZM35.136 16.5518C34.776 20.2567 33.216 29.2611 32.424 33.4116C32.088 35.1703 31.416 35.7565 30.792 35.8268C29.4 35.9441 28.344 34.9358 27 34.0682C24.888 32.7081 23.688 31.8639 21.648 30.5508C19.272 29.0266 20.808 28.1825 22.176 26.8224C22.536 26.4707 28.68 21.0071 28.8 20.5146C28.8167 20.4401 28.8145 20.3626 28.7935 20.2891C28.7726 20.2155 28.7337 20.1481 28.68 20.0926C28.536 19.9753 28.344 20.0222 28.176 20.0457C27.96 20.0926 24.6 22.2733 18.048 26.5879C17.088 27.221 16.224 27.5493 15.456 27.5259C14.592 27.5024 12.96 27.0569 11.736 26.6583C10.224 26.1893 9.048 25.9314 9.144 25.1106C9.192 24.6886 9.792 24.2665 10.92 23.8209C17.928 20.8429 22.584 18.8732 24.912 17.9352C31.584 15.2152 32.952 14.7462 33.864 14.7462C34.056 14.7462 34.512 14.7931 34.8 15.0276C35.04 15.2152 35.112 15.4731 35.136 15.6607C35.112 15.8014 35.16 16.2235 35.136 16.5518Z" fill="currentColor"/>
</symbol><symbol viewBox="0 0 45 45" fill="none" id="vk" xmlns="http://www.w3.org/2000/svg">
<path d="M3.15 3.68831C5.96046e-07 6.79953 0 11.7745 0 21.7393V23.5003C0 33.4503 5.96046e-07 38.4254 3.15 41.5513C6.33 44.6331 11.415 44.6331 21.6 44.6331H23.4C33.57 44.6331 38.655 44.6331 41.85 41.5513C45 38.44 45 33.465 45 23.5003V21.7393C45 11.7892 45 6.81421 41.85 3.68831C38.67 0.606446 33.585 0.606445 23.4 0.606445H21.6C11.43 0.606445 6.345 0.606446 3.15 3.68831ZM7.59 14.0052H12.75C12.915 22.3997 16.695 25.9511 19.695 26.6849V14.0052H24.54V21.2403C27.495 20.9321 30.615 17.6301 31.665 13.9906H36.495C36.1009 15.8745 35.3141 17.6586 34.1837 19.2317C33.0533 20.8048 31.6035 22.133 29.925 23.1334C31.7986 24.0454 33.4532 25.3358 34.7796 26.9194C36.106 28.503 37.0741 30.3438 37.62 32.3203H32.295C31.155 28.8422 28.305 26.1419 24.54 25.775V32.3203H23.94C13.68 32.3203 7.83 25.4522 7.59 14.0052Z" fill="currentColor"/>
</symbol></svg>